# Blender v2.79 (sub 0) OBJ File: 'box.blend'
# www.blender.org
o Cube.001
v 1.000000 -1.000000 -1.000000
v 1.000000 -1.000000 1.000000
v -1.000000 -1.000000 1.000000
v -1.000000 -1.000000 -1.000000
v 1.000000 1.000000 -0.999999
v -1.000000 1.000000 -1.000000
v -1.000000 1.000000 1.000000
v 0.999999 1.000000 1.000001
vt 0.124166 0.907824
vt 0.000000 1.000000
vt 0.000000 0.666667
vt 0.210294 0.237362
vt 0.000000 0.666667
vt 0.000000 0.333333
vt 0.666667 0.000000
vt 0.789706 0.232441
vt 0.000000 0.000000
vt 0.109402 0.180764
vt 0.000000 0.333333
vt 0.870912 0.161078
vt 1.000000 0.000000
vt 1.000000 0.333333
vt 0.210294 0.814314
vt 0.333333 1.000000
vt 0.333333 0.000000
vt 0.333333 0.000000
vt 0.666667 0.000000
vt 0.784785 0.821696
vn 0.0000 -1.0000 -0.0000
vn -0.0000 1.0000 0.0000
vn 1.0000 0.0000 0.0000
vn -0.0000 -0.0000 1.0000
vn -1.0000 -0.0000 0.0000
vn 0.0000 0.0000 -1.0000
s 1
f 2/1/1 4/2/1 1/3/1
f 5/4/2 7/5/2 8/6/2
f 5/4/3 2/7/3 1/8/3
f 8/9/4 3/10/4 2/11/4
f 7/12/5 4/13/5 3/14/5
f 1/8/6 6/15/6 5/4/6
f 2/1/1 3/16/1 4/2/1
f 5/4/2 6/15/2 7/5/2
f 5/4/3 8/17/3 2/7/3
f 8/9/4 7/18/4 3/10/4
f 7/12/5 6/19/5 4/13/5
f 1/8/6 4/20/6 6/15/6
